<?xml version="1.0" standalone="no"?>
<!DOCTYPE svg PUBLIC "-//W3C//DTD SVG 20010904//EN"
 "http://www.w3.org/TR/2001/REC-SVG-20010904/DTD/svg10.dtd">
<svg version="1.0" xmlns="http://www.w3.org/2000/svg"
 width="2400.000000pt" height="2400.000000pt" viewBox="0 0 2400.000000 2400.000000"
 preserveAspectRatio="xMidYMid meet">
<metadata>
Created by potrace 1.14, written by Peter Selinger 2001-2017
</metadata>
<g transform="translate(0.000000,2400.000000) scale(0.100000,-0.100000)"
fill="#000000" stroke="none">
<path d="M2 11995 l0 -3955 949 0 949 0 1 1615 c1 888 2 1618 3 1623 1 4 5 25
9 47 37 195 182 346 383 399 51 13 146 15 699 13 561 -2 646 -5 686 -19 125
-44 250 -146 301 -244 14 -28 34 -82 44 -120 17 -65 18 -164 18 -1689 l1
-1620 950 -3 950 -2 -1 1797 c0 989 -4 1836 -8 1883 -37 422 -145 750 -331
999 -225 303 -554 527 -950 647 -44 13 -93 28 -110 33 -16 5 -73 19 -125 29
-83 18 -120 24 -230 38 -107 14 -308 18 -935 18 -635 -1 -769 -4 -875 -19 -25
-4 -83 -10 -175 -20 -103 -12 -165 -24 -234 -48 l-71 -25 0 1289 0 1289 -949
0 -949 0 0 -3955z"/>
<path d="M14700 11995 l0 -3955 950 0 950 0 0 3955 0 3955 -950 0 -950 0 0
-3955z"/>
<path d="M7313 13474 c-6 -17 3 -3606 10 -3644 6 -32 14 -90 22 -150 24 -179
105 -444 186 -604 170 -339 429 -600 759 -768 207 -105 445 -184 679 -223 19
-3 37 -7 40 -9 3 -2 37 -7 75 -11 37 -3 82 -9 100 -12 61 -12 2147 -15 2161
-3 7 6 55 13 106 15 104 5 198 13 244 21 345 57 603 165 825 343 252 203 443
462 558 757 34 89 100 312 117 399 12 59 35 211 40 260 3 28 8 73 12 100 6 49
12 3510 6 3530 -4 11 -1881 14 -1898 3 -7 -4 -10 -526 -10 -1590 0 -870 -3
-1608 -8 -1638 -12 -86 -14 -91 -37 -152 -61 -163 -176 -255 -380 -304 -14 -4
-290 -7 -615 -8 -592 -2 -672 2 -764 35 -128 45 -233 149 -285 279 -46 115
-45 64 -46 1764 0 885 -3 1612 -6 1615 -11 11 -1886 7 -1891 -5z"/>
<path d="M18057 13475 c-2 -5 -3 -784 -2 -1730 1 -1543 4 -1792 20 -1927 11
-88 16 -124 20 -148 3 -14 7 -38 10 -55 3 -16 7 -41 11 -55 3 -14 8 -36 11
-50 63 -310 247 -645 483 -880 129 -130 204 -188 348 -273 188 -111 511 -230
712 -262 25 -4 54 -9 65 -11 11 -3 38 -7 60 -10 22 -3 65 -10 95 -16 81 -16
2191 -23 2200 -8 4 7 47 13 106 15 54 3 118 7 142 10 23 3 63 8 90 11 252 31
566 143 747 268 33 22 62 43 65 46 3 3 28 23 55 44 28 22 84 75 126 117 151
152 249 293 350 504 52 107 132 322 143 379 2 11 9 39 14 61 6 22 13 54 16 70
3 17 10 55 16 85 6 30 13 78 16 105 3 28 8 61 12 75 6 29 14 3595 7 3625 -4
20 -12 20 -949 20 -520 0 -948 -3 -951 -7 -4 -3 -7 -732 -7 -1620 -1 -1738 1
-1680 -53 -1789 -82 -164 -207 -252 -393 -277 -31 -4 -320 -7 -642 -6 -632 1
-643 2 -760 57 -75 35 -116 67 -162 128 -40 54 -84 140 -93 184 -3 14 -8 37
-11 53 -4 15 -7 758 -8 1652 l-1 1625 -952 0 c-627 0 -954 -3 -956 -10z"/>
</g>
</svg>
